<?xml version="1.0" encoding="UTF-8" standalone="no"?><!DOCTYPE svg PUBLIC "-//W3C//DTD SVG 1.1//EN" "http://www.w3.org/Graphics/SVG/1.1/DTD/svg11.dtd"><svg width="100%" height="100%" viewBox="0 0 31 15" version="1.1" xmlns="http://www.w3.org/2000/svg" xmlns:xlink="http://www.w3.org/1999/xlink" xml:space="preserve" xmlns:serif="http://www.serif.com/" style="fill-rule:evenodd;clip-rule:evenodd;"><g><path d="M27.945,14.161l-25.792,0l-0,-13.575l25.792,0" style="fill:#b31942;fill-rule:nonzero;"/><path d="M27.945,12.595l-25.792,-0m-0,-2.089l25.792,0m-0,-2.088l-25.792,0m-0,-2.088l25.792,-0m-0,-2.089l-25.792,0m-0,-2.088l25.792,-0" style="fill-rule:nonzero;stroke:#fff;stroke-width:1.04px;"/><path d="M27.945,14.161l-10.317,0l0,-7.309l10.317,-0" style="fill:#0a3161;fill-rule:nonzero;"/><g><g id="s18"><g id="s9"><g id="s5"><g id="s4"><path id="s" d="M27.085,13.848l-0.245,-0.756l0.642,0.467l-0.794,0l0.643,-0.467l-0.246,0.756Z" style="fill:#fff;fill-rule:nonzero;"/><path id="s1" serif:id="s" d="M27.085,12.386l-0.245,-0.756l0.642,0.467l-0.794,0l0.643,-0.467l-0.246,0.756Z" style="fill:#fff;fill-rule:nonzero;"/><path id="s2" serif:id="s" d="M27.085,10.924l-0.245,-0.755l0.642,0.467l-0.794,-0l0.643,-0.467l-0.246,0.755Z" style="fill:#fff;fill-rule:nonzero;"/><path id="s3" serif:id="s" d="M27.085,9.462l-0.245,-0.755l0.642,0.467l-0.794,-0l0.643,-0.467l-0.246,0.755Z" style="fill:#fff;fill-rule:nonzero;"/></g><path id="s6" serif:id="s" d="M27.085,8l-0.245,-0.755l0.642,0.467l-0.794,-0l0.643,-0.467l-0.246,0.755Z" style="fill:#fff;fill-rule:nonzero;"/></g><g id="s41" serif:id="s4"><path id="s7" serif:id="s" d="M26.226,13.117l-0.246,-0.756l0.643,0.467l-0.795,0l0.643,-0.467l-0.245,0.756Z" style="fill:#fff;fill-rule:nonzero;"/><path id="s8" serif:id="s" d="M26.226,11.655l-0.246,-0.755l0.643,0.466l-0.795,0l0.643,-0.466l-0.245,0.755Z" style="fill:#fff;fill-rule:nonzero;"/><path id="s10" serif:id="s" d="M26.226,10.193l-0.246,-0.755l0.643,0.467l-0.795,-0l0.643,-0.467l-0.245,0.755Z" style="fill:#fff;fill-rule:nonzero;"/><path id="s11" serif:id="s" d="M26.226,8.731l-0.246,-0.755l0.643,0.467l-0.795,-0l0.643,-0.467l-0.245,0.755Z" style="fill:#fff;fill-rule:nonzero;"/></g></g><g id="s91" serif:id="s9"><g id="s51" serif:id="s5"><g id="s42" serif:id="s4"><path id="s12" serif:id="s" d="M25.366,13.848l-0.246,-0.756l0.643,0.467l-0.795,0l0.643,-0.467l-0.245,0.756Z" style="fill:#fff;fill-rule:nonzero;"/><path id="s13" serif:id="s" d="M25.366,12.386l-0.246,-0.756l0.643,0.467l-0.795,0l0.643,-0.467l-0.245,0.756Z" style="fill:#fff;fill-rule:nonzero;"/><path id="s14" serif:id="s" d="M25.366,10.924l-0.246,-0.755l0.643,0.467l-0.795,-0l0.643,-0.467l-0.245,0.755Z" style="fill:#fff;fill-rule:nonzero;"/><path id="s15" serif:id="s" d="M25.366,9.462l-0.246,-0.755l0.643,0.467l-0.795,-0l0.643,-0.467l-0.245,0.755Z" style="fill:#fff;fill-rule:nonzero;"/></g><path id="s16" serif:id="s" d="M25.366,8l-0.246,-0.755l0.643,0.467l-0.795,-0l0.643,-0.467l-0.245,0.755Z" style="fill:#fff;fill-rule:nonzero;"/></g><g id="s43" serif:id="s4"><path id="s17" serif:id="s" d="M24.506,13.117l-0.246,-0.756l0.643,0.467l-0.794,0l0.642,-0.467l-0.245,0.756Z" style="fill:#fff;fill-rule:nonzero;"/><path id="s19" serif:id="s" d="M24.506,11.655l-0.246,-0.755l0.643,0.466l-0.794,0l0.642,-0.466l-0.245,0.755Z" style="fill:#fff;fill-rule:nonzero;"/><path id="s20" serif:id="s" d="M24.506,10.193l-0.246,-0.755l0.643,0.467l-0.794,-0l0.642,-0.467l-0.245,0.755Z" style="fill:#fff;fill-rule:nonzero;"/><path id="s21" serif:id="s" d="M24.506,8.731l-0.246,-0.755l0.643,0.467l-0.794,-0l0.642,-0.467l-0.245,0.755Z" style="fill:#fff;fill-rule:nonzero;"/></g></g></g><g id="s181" serif:id="s18"><g id="s92" serif:id="s9"><g id="s52" serif:id="s5"><g id="s44" serif:id="s4"><path id="s22" serif:id="s" d="M23.646,13.848l-0.245,-0.756l0.643,0.467l-0.795,0l0.643,-0.467l-0.246,0.756Z" style="fill:#fff;fill-rule:nonzero;"/><path id="s23" serif:id="s" d="M23.646,12.386l-0.245,-0.756l0.643,0.467l-0.795,0l0.643,-0.467l-0.246,0.756Z" style="fill:#fff;fill-rule:nonzero;"/><path id="s24" serif:id="s" d="M23.646,10.924l-0.245,-0.755l0.643,0.467l-0.795,-0l0.643,-0.467l-0.246,0.755Z" style="fill:#fff;fill-rule:nonzero;"/><path id="s25" serif:id="s" d="M23.646,9.462l-0.245,-0.755l0.643,0.467l-0.795,-0l0.643,-0.467l-0.246,0.755Z" style="fill:#fff;fill-rule:nonzero;"/></g><path id="s26" serif:id="s" d="M23.646,8l-0.245,-0.755l0.643,0.467l-0.795,-0l0.643,-0.467l-0.246,0.755Z" style="fill:#fff;fill-rule:nonzero;"/></g><g id="s45" serif:id="s4"><path id="s27" serif:id="s" d="M22.786,13.117l-0.245,-0.756l0.643,0.467l-0.795,0l0.643,-0.467l-0.246,0.756Z" style="fill:#fff;fill-rule:nonzero;"/><path id="s28" serif:id="s" d="M22.786,11.655l-0.245,-0.755l0.643,0.466l-0.795,0l0.643,-0.466l-0.246,0.755Z" style="fill:#fff;fill-rule:nonzero;"/><path id="s29" serif:id="s" d="M22.786,10.193l-0.245,-0.755l0.643,0.467l-0.795,-0l0.643,-0.467l-0.246,0.755Z" style="fill:#fff;fill-rule:nonzero;"/><path id="s30" serif:id="s" d="M22.786,8.731l-0.245,-0.755l0.643,0.467l-0.795,-0l0.643,-0.467l-0.246,0.755Z" style="fill:#fff;fill-rule:nonzero;"/></g></g><g id="s93" serif:id="s9"><g id="s53" serif:id="s5"><g id="s46" serif:id="s4"><path id="s31" serif:id="s" d="M21.927,13.848l-0.246,-0.756l0.643,0.467l-0.794,0l0.642,-0.467l-0.245,0.756Z" style="fill:#fff;fill-rule:nonzero;"/><path id="s32" serif:id="s" d="M21.927,12.386l-0.246,-0.756l0.643,0.467l-0.794,0l0.642,-0.467l-0.245,0.756Z" style="fill:#fff;fill-rule:nonzero;"/><path id="s33" serif:id="s" d="M21.927,10.924l-0.246,-0.755l0.643,0.467l-0.794,-0l0.642,-0.467l-0.245,0.755Z" style="fill:#fff;fill-rule:nonzero;"/><path id="s34" serif:id="s" d="M21.927,9.462l-0.246,-0.755l0.643,0.467l-0.794,-0l0.642,-0.467l-0.245,0.755Z" style="fill:#fff;fill-rule:nonzero;"/></g><path id="s35" serif:id="s" d="M21.927,8l-0.246,-0.755l0.643,0.467l-0.794,-0l0.642,-0.467l-0.245,0.755Z" style="fill:#fff;fill-rule:nonzero;"/></g><g id="s47" serif:id="s4"><path id="s36" serif:id="s" d="M21.067,13.117l-0.246,-0.756l0.643,0.467l-0.794,0l0.643,-0.467l-0.246,0.756Z" style="fill:#fff;fill-rule:nonzero;"/><path id="s37" serif:id="s" d="M21.067,11.655l-0.246,-0.755l0.643,0.466l-0.794,0l0.643,-0.466l-0.246,0.755Z" style="fill:#fff;fill-rule:nonzero;"/><path id="s38" serif:id="s" d="M21.067,10.193l-0.246,-0.755l0.643,0.467l-0.794,-0l0.643,-0.467l-0.246,0.755Z" style="fill:#fff;fill-rule:nonzero;"/><path id="s39" serif:id="s" d="M21.067,8.731l-0.246,-0.755l0.643,0.467l-0.794,-0l0.643,-0.467l-0.246,0.755Z" style="fill:#fff;fill-rule:nonzero;"/></g></g></g><g id="s94" serif:id="s9"><g id="s54" serif:id="s5"><g id="s48" serif:id="s4"><path id="s40" serif:id="s" d="M20.207,13.848l-0.245,-0.756l0.643,0.467l-0.795,0l0.643,-0.467l-0.246,0.756Z" style="fill:#fff;fill-rule:nonzero;"/><path id="s49" serif:id="s" d="M20.207,12.386l-0.245,-0.756l0.643,0.467l-0.795,0l0.643,-0.467l-0.246,0.756Z" style="fill:#fff;fill-rule:nonzero;"/><path id="s50" serif:id="s" d="M20.207,10.924l-0.245,-0.755l0.643,0.467l-0.795,-0l0.643,-0.467l-0.246,0.755Z" style="fill:#fff;fill-rule:nonzero;"/><path id="s55" serif:id="s" d="M20.207,9.462l-0.245,-0.755l0.643,0.467l-0.795,-0l0.643,-0.467l-0.246,0.755Z" style="fill:#fff;fill-rule:nonzero;"/></g><path id="s56" serif:id="s" d="M20.207,8l-0.245,-0.755l0.643,0.467l-0.795,-0l0.643,-0.467l-0.246,0.755Z" style="fill:#fff;fill-rule:nonzero;"/></g><g id="s410" serif:id="s4"><path id="s57" serif:id="s" d="M19.348,13.117l-0.246,-0.756l0.643,0.467l-0.795,0l0.643,-0.467l-0.245,0.756Z" style="fill:#fff;fill-rule:nonzero;"/><path id="s58" serif:id="s" d="M19.348,11.655l-0.246,-0.755l0.643,0.466l-0.795,0l0.643,-0.466l-0.245,0.755Z" style="fill:#fff;fill-rule:nonzero;"/><path id="s59" serif:id="s" d="M19.348,10.193l-0.246,-0.755l0.643,0.467l-0.795,-0l0.643,-0.467l-0.245,0.755Z" style="fill:#fff;fill-rule:nonzero;"/><path id="s60" serif:id="s" d="M19.348,8.731l-0.246,-0.755l0.643,0.467l-0.795,-0l0.643,-0.467l-0.245,0.755Z" style="fill:#fff;fill-rule:nonzero;"/></g></g><g id="s510" serif:id="s5"><g id="s411" serif:id="s4"><path id="s61" serif:id="s" d="M18.488,13.848l-0.246,-0.756l0.643,0.467l-0.794,0l0.642,-0.467l-0.245,0.756Z" style="fill:#fff;fill-rule:nonzero;"/><path id="s62" serif:id="s" d="M18.488,12.386l-0.246,-0.756l0.643,0.467l-0.794,0l0.642,-0.467l-0.245,0.756Z" style="fill:#fff;fill-rule:nonzero;"/><path id="s63" serif:id="s" d="M18.488,10.924l-0.246,-0.755l0.643,0.467l-0.794,-0l0.642,-0.467l-0.245,0.755Z" style="fill:#fff;fill-rule:nonzero;"/><path id="s64" serif:id="s" d="M18.488,9.462l-0.246,-0.755l0.643,0.467l-0.794,-0l0.642,-0.467l-0.245,0.755Z" style="fill:#fff;fill-rule:nonzero;"/></g><path id="s65" serif:id="s" d="M18.488,8l-0.246,-0.755l0.643,0.467l-0.794,-0l0.642,-0.467l-0.245,0.755Z" style="fill:#fff;fill-rule:nonzero;"/></g></g></g></svg>